<svg width="143" height="143" viewBox="0 0 143 143" fill="none" xmlns="http://www.w3.org/2000/svg">
<g id="ooui:success" clip-path="url(#clip0_1174_3985)" filter="url(#filter0_i_1174_3985)">
<path id="Vector" d="M71.5 0C78.0635 0 84.3942 0.837891 90.4922 2.51367C96.5902 4.18945 102.269 6.61003 107.529 9.77539C112.789 12.9408 117.607 16.6647 121.983 20.9473C126.359 25.2298 130.106 30.0477 133.225 35.4009C136.343 40.7541 138.741 46.4564 140.417 52.5078C142.092 58.5592 142.953 64.89 143 71.5C143 78.0635 142.162 84.3942 140.486 90.4922C138.811 96.5902 136.39 102.269 133.225 107.529C130.059 112.789 126.335 117.607 122.053 121.983C117.77 126.359 112.952 130.106 107.599 133.225C102.246 136.343 96.5436 138.741 90.4922 140.417C84.4408 142.092 78.11 142.953 71.5 143C64.9365 143 58.6058 142.162 52.5078 140.486C46.4098 138.811 40.7308 136.39 35.4707 133.225C30.2106 130.059 25.3927 126.335 21.0171 122.053C16.6414 117.77 12.8942 112.952 9.77539 107.599C6.65658 102.246 4.25928 96.5436 2.5835 90.4922C0.907715 84.4408 0.0465495 78.11 0 71.5C0 64.9365 0.837891 58.6058 2.51367 52.5078C4.18945 46.4098 6.61003 40.7308 9.77539 35.4707C12.9408 30.2106 16.6647 25.3927 20.9473 21.0171C25.2298 16.6414 30.0477 12.8942 35.4009 9.77539C40.7541 6.65658 46.4564 4.25928 52.5078 2.5835C58.5592 0.907715 64.89 0.0465495 71.5 0ZM80.4375 107.25V89.375H62.5625V107.25H80.4375ZM80.4375 80.4375V35.75H62.5625V80.4375H80.4375Z" fill="#F65944"/>
</g>
<defs>
<filter id="filter0_i_1174_3985" x="0" y="0" width="143" height="147" filterUnits="userSpaceOnUse" color-interpolation-filters="sRGB">
<feFlood flood-opacity="0" result="BackgroundImageFix"/>
<feBlend mode="normal" in="SourceGraphic" in2="BackgroundImageFix" result="shape"/>
<feColorMatrix in="SourceAlpha" type="matrix" values="0 0 0 0 0 0 0 0 0 0 0 0 0 0 0 0 0 0 127 0" result="hardAlpha"/>
<feOffset dy="4"/>
<feGaussianBlur stdDeviation="2"/>
<feComposite in2="hardAlpha" operator="arithmetic" k2="-1" k3="1"/>
<feColorMatrix type="matrix" values="0 0 0 0 0 0 0 0 0 0 0 0 0 0 0 0 0 0 0.25 0"/>
<feBlend mode="normal" in2="shape" result="effect1_innerShadow_1174_3985"/>
</filter>
<clipPath id="clip0_1174_3985">
<rect width="143" height="143" fill="white"/>
</clipPath>
</defs>
</svg>
