<svg width="143" height="143" viewBox="0 0 143 143" fill="none" xmlns="http://www.w3.org/2000/svg">
<g id="ooui:success" clip-path="url(#clip0_979_4018)" filter="url(#filter0_i_979_4018)">
<path id="Vector" d="M71.5 143C52.537 143 34.3507 135.467 20.9419 122.058C7.53301 108.649 0 90.463 0 71.5C0 52.537 7.53301 34.3507 20.9419 20.9419C34.3507 7.53301 52.537 0 71.5 0C90.463 0 108.649 7.53301 122.058 20.9419C135.467 34.3507 143 52.537 143 71.5C143 90.463 135.467 108.649 122.058 122.058C108.649 135.467 90.463 143 71.5 143ZM57.2 107.25L121.55 46.475L110.825 35.75L57.2 85.8L32.175 60.775L21.45 71.5L57.2 107.25Z" fill="#73D378"/>
</g>
<defs>
<filter id="filter0_i_979_4018" x="0" y="0" width="143" height="147" filterUnits="userSpaceOnUse" color-interpolation-filters="sRGB">
<feFlood flood-opacity="0" result="BackgroundImageFix"/>
<feBlend mode="normal" in="SourceGraphic" in2="BackgroundImageFix" result="shape"/>
<feColorMatrix in="SourceAlpha" type="matrix" values="0 0 0 0 0 0 0 0 0 0 0 0 0 0 0 0 0 0 127 0" result="hardAlpha"/>
<feOffset dy="4"/>
<feGaussianBlur stdDeviation="2"/>
<feComposite in2="hardAlpha" operator="arithmetic" k2="-1" k3="1"/>
<feColorMatrix type="matrix" values="0 0 0 0 0 0 0 0 0 0 0 0 0 0 0 0 0 0 0.25 0"/>
<feBlend mode="normal" in2="shape" result="effect1_innerShadow_979_4018"/>
</filter>
<clipPath id="clip0_979_4018">
<rect width="143" height="143" fill="white"/>
</clipPath>
</defs>
</svg>
